HIERARCHY
ROOT Hips
{
	OFFSET 0.000000 0.000000 0.000000
	CHANNELS 6 Xposition Yposition Zposition Xrotation Yrotation Zrotation
	JOINT LeftUpLeg_virtual
	{
		OFFSET 0.000000 0.000000 0.000000
		CHANNELS 3 Xrotation Yrotation Zrotation
		JOINT LeftUpLeg
		{
			OFFSET 15.427100 -6.655098 0.678600
			CHANNELS 3 Xrotation Yrotation Zrotation
			JOINT LeftLeg
			{
				OFFSET 4.081073 -39.591068 13.024000
				CHANNELS 3 Xrotation Yrotation Zrotation
				JOINT LeftFoot
				{
					OFFSET -4.081074 -37.707932 -15.979700
					CHANNELS 3 Xrotation Yrotation Zrotation
					JOINT LeftToeBase
					{
						OFFSET 5.346399 -15.068900 20.645000
						CHANNELS 3 Xrotation Yrotation Zrotation
						JOINT LeftToe_End
						{
							OFFSET 2.754700 0.931300 11.300900
							CHANNELS 3 Xrotation Yrotation Zrotation
							End Site
							{
								OFFSET 0 0 0
							}
						}
					}
				}
			}
		}
	}
	JOINT RightUpLeg_virtual
	{
		OFFSET 0.000000 0.000000 0.000000
		CHANNELS 3 Xrotation Yrotation Zrotation
		JOINT RightUpLeg
		{
			OFFSET -15.569500 -6.655098 0.678600
			CHANNELS 3 Xrotation Yrotation Zrotation
			JOINT RightLeg
			{
				OFFSET -4.081825 -39.591045 13.023800
				CHANNELS 3 Xrotation Yrotation Zrotation
				JOINT RightFoot
				{
					OFFSET 4.081824 -37.707954 -15.979600
					CHANNELS 3 Xrotation Yrotation Zrotation
					JOINT RightToeBase
					{
						OFFSET -5.346400 -15.068900 20.645000
						CHANNELS 3 Xrotation Yrotation Zrotation
						JOINT RightToe_End
						{
							OFFSET -2.754700 0.931300 11.300900
							CHANNELS 3 Xrotation Yrotation Zrotation
							End Site
							{
								OFFSET 0 0 0
							}
						}
					}
				}
			}
		}
	}
	JOINT Spine_virtual
	{
		OFFSET 0.000000 0.000000 0.000000
		CHANNELS 3 Xrotation Yrotation Zrotation
		JOINT Spine
		{
			OFFSET -0.279200 12.230698 -2.892100
			CHANNELS 3 Xrotation Yrotation Zrotation
			JOINT Spine1
			{
				OFFSET -0.232667 10.192268 -1.242267
				CHANNELS 3 Xrotation Yrotation Zrotation
				JOINT Spine1_split
				{
					OFFSET -0.232667 10.192268 -1.242267
					CHANNELS 3 Xrotation Yrotation Zrotation
					JOINT Spine2
					{
						OFFSET -0.232667 10.192268 -1.242267
						CHANNELS 3 Xrotation Yrotation Zrotation
						JOINT Neck_virtual
						{
							OFFSET 0.000000 0.000000 0.000000
							CHANNELS 3 Xrotation Yrotation Zrotation
							JOINT Neck
							{
								OFFSET -0.418800 17.814194 8.416900
								CHANNELS 3 Xrotation Yrotation Zrotation
								JOINT Head
								{
									OFFSET 0.000000 7.031097 3.806800
									CHANNELS 3 Xrotation Yrotation Zrotation
									JOINT HeadTop_End
									{
										OFFSET 0.000000 24.646606 12.978600
										CHANNELS 3 Xrotation Yrotation Zrotation
										End Site
										{
											OFFSET 0 0 0
										}
									}
								}
							}
						}
						JOINT LeftShoulder_virtual
						{
							OFFSET 0.000000 0.000000 0.000000
							CHANNELS 3 Xrotation Yrotation Zrotation
							JOINT LeftShoulder
							{
								OFFSET 8.476499 7.247704 -3.868750
								CHANNELS 3 Xrotation Yrotation Zrotation
								JOINT LeftShoulder_split
								{
									OFFSET 8.476499 7.247704 -3.868750
									CHANNELS 3 Xrotation Yrotation Zrotation
									JOINT LeftArm
									{
										OFFSET 9.308998 -2.777710 0.208600
										CHANNELS 3 Xrotation Yrotation Zrotation
										JOINT LeftForeArm
										{
											OFFSET 29.972298 0.000000 0.000000
											CHANNELS 3 Xrotation Yrotation Zrotation
											JOINT LeftHand
											{
												OFFSET 26.026505 0.000000 0.000000
												CHANNELS 3 Xrotation Yrotation Zrotation
												End Site
												{
													OFFSET 0 0 0
												}
											}
										}
									}
								}
							}
						}
						JOINT RightShoulder_virtual
						{
							OFFSET 0.000000 0.000000 0.000000
							CHANNELS 3 Xrotation Yrotation Zrotation
							JOINT RightShoulder
							{
								OFFSET -7.570500 7.247704 -3.868750
								CHANNELS 3 Xrotation Yrotation Zrotation
								JOINT RightShoulder_split
								{
									OFFSET -7.570500 7.247704 -3.868750
									CHANNELS 3 Xrotation Yrotation Zrotation
									JOINT RightArm
									{
										OFFSET -9.308998 -2.777710 0.208500
										CHANNELS 3 Xrotation Yrotation Zrotation
										JOINT RightForeArm
										{
											OFFSET -29.972300 0.000000 0.000000
											CHANNELS 3 Xrotation Yrotation Zrotation
											JOINT RightHand
											{
												OFFSET -26.026505 0.000000 0.000000
												CHANNELS 3 Xrotation Yrotation Zrotation
												End Site
												{
													OFFSET 0 0 0
												}
											}
										}
									}
								}
							}
						}
					}
				}
			}
		}
	}
}
MOTION
Frames: 4
Frame Time: 0.03333333
4.922744 70.655678 -3.849373 0.000000 0.000000 0.000000 2.447842 -55.183509 4.149447 -46.351433 -3.610910 29.413021 45.010110 -4.680823 -0.166686 0.882208 -9.526927 -21.041731 -0.717245 0.111826 0.752140 0.000000 0.000000 0.000000 0.988004 -54.989088 3.839775 -28.022828 -23.870215 -48.113533 45.821618 15.362791 0.992724 -22.443016 -9.163775 21.710625 2.465841 1.089801 0.437712 0.000000 0.000000 0.000000 4.247409 -52.185859 4.837715 8.758119 10.734009 -1.507399 3.577911 4.717121 -1.402052 0.391402 -0.163593 -0.058821 0.000000 0.000000 0.000000 3.864686 4.879759 -1.137146 -2.560338 2.956011 3.220463 -5.155729 39.998138 -6.485797 0.000000 0.000000 0.000000 4.326839 4.789585 -1.900726 0.423072 -8.495936 -15.832857 -6.145851 2.067341 1.331598 -11.797560 -39.472070 -19.813341 -6.327395 -66.644997 -3.162759 0.000000 0.000000 0.000000 5.666915 5.266831 -1.500347 -4.918812 20.475553 -19.507795 1.893303 -4.962159 -4.206481 -31.905548 28.257927 29.874633 -128.142777 88.119453 127.379039 0.000000 0.000000 0.000000 
5.239116 71.199806 -3.933117 0.000000 0.000000 0.000000 2.238135 -56.657256 4.184938 -45.666775 -2.289414 30.067015 44.420924 -5.093257 -0.318912 0.706944 -8.597805 -21.262106 -0.767772 0.168453 0.413499 0.000000 0.000000 0.000000 0.955741 -56.083838 3.793334 -28.979369 -23.144656 -47.619372 45.513471 14.793956 1.039733 -20.930411 -8.615005 21.044011 3.009484 1.104022 0.425340 0.000000 0.000000 0.000000 3.649192 -53.160079 4.450870 10.350119 10.899749 -2.053206 3.666284 4.473816 -1.547991 0.267150 0.019356 -0.145248 0.000000 0.000000 0.000000 3.685746 4.692094 -1.151200 -2.485486 2.773081 3.615105 -8.152848 39.466612 -5.852729 0.000000 0.000000 0.000000 4.808136 4.353405 -1.867706 0.783660 -8.698874 -15.851056 -7.392715 2.284787 1.014122 -20.936260 -38.500455 -25.704474 -4.896583 -67.539158 -1.982029 0.000000 0.000000 0.000000 5.856777 5.075248 -1.273036 -1.756411 20.586105 -14.250217 1.790529 -4.302032 -3.909141 -22.246268 32.600349 24.991679 -169.922088 84.280832 169.208443 0.000000 0.000000 0.000000 
5.498211 71.949013 -4.015266 0.000000 0.000000 0.000000 2.185182 -58.833385 4.047974 -44.414535 -0.525349 31.174414 43.575132 -5.839250 -0.436948 -0.440052 -7.304303 -21.561201 -0.999180 0.169966 0.112843 0.000000 0.000000 0.000000 0.943515 -58.155734 3.505928 -29.897893 -22.189459 -46.627290 44.379427 14.151075 1.064187 -18.845568 -7.842329 20.519184 3.296451 1.096260 0.480688 0.000000 0.000000 0.000000 3.046043 -55.112325 3.822541 11.912080 10.644136 -2.807329 3.692453 4.064265 -1.768045 0.407535 0.014657 -0.083666 0.000000 0.000000 0.000000 3.558051 4.251689 -1.322057 -2.698483 2.546358 3.946457 -10.438209 39.863798 -5.205276 0.000000 0.000000 0.000000 5.147097 3.771088 -1.900085 1.178453 -8.471335 -14.955614 -8.405985 2.407474 0.710879 -29.848231 -36.567019 -30.110237 -2.668999 -68.303907 -0.121743 0.000000 0.000000 0.000000 5.848781 4.642365 -1.319414 0.647061 20.079728 -10.318687 1.940602 -2.729664 -3.087721 -14.112959 34.670955 18.352107 -174.469792 81.447301 173.570816 0.000000 0.000000 0.000000 
5.701893 72.854988 -4.081932 0.000000 0.000000 0.000000 2.104316 -61.761712 3.610780 -42.543131 1.549697 32.699025 42.747374 -6.855164 -0.556267 -2.244888 -5.704127 -21.865013 -1.469368 0.107597 -0.114229 0.000000 0.000000 0.000000 0.941359 -61.060389 2.975576 -30.821300 -21.021077 -45.150907 42.517750 13.514434 1.078441 -16.409256 -6.770284 20.108854 3.463319 1.055688 0.620883 0.000000 0.000000 0.000000 2.353877 -57.842208 2.892536 13.191481 10.105761 -3.750015 3.697863 3.627004 -2.022228 0.519923 0.152886 0.019588 0.000000 0.000000 0.000000 3.500108 3.702720 -1.566246 -3.210292 2.256969 4.274711 -11.712913 41.087532 -4.504493 0.000000 0.000000 0.000000 5.314691 3.200450 -1.969429 1.508725 -8.092363 -13.230234 -9.221344 2.334926 0.500991 -37.083139 -33.905940 -31.414516 -0.145488 -69.791843 1.977927 0.000000 0.000000 0.000000 5.720086 4.115060 -1.578951 2.377153 19.349216 -7.976155 1.920471 -0.970171 -1.743816 -9.544789 37.528194 11.889525 -173.328345 82.103942 172.005583 0.000000 0.000000 0.000000 
